<svg xmlns="http://www.w3.org/2000/svg" width="181" height="243.999" viewBox="0 0 181 243.999">
  <path id="Subtraction_2" data-name="Subtraction 2" d="M10021.1-2576a17.979,17.979,0,0,1-12.8-5.3,17.986,17.986,0,0,1-5.3-12.8v-135.4a89.905,89.905,0,0,1,7.11-35.225,90.612,90.612,0,0,1,8.345-15.373,91.206,91.206,0,0,1,11.052-13.393,91.039,91.039,0,0,1,13.4-11.052,90.563,90.563,0,0,1,15.371-8.345,89.943,89.943,0,0,1,35.227-7.11,89.947,89.947,0,0,1,35.228,7.11,90.661,90.661,0,0,1,15.373,8.345,91.412,91.412,0,0,1,13.393,11.052,91.159,91.159,0,0,1,11.052,13.393,90.43,90.43,0,0,1,8.343,15.373A89.934,89.934,0,0,1,10184-2729.5v134.691a17.98,17.98,0,0,1-5.3,12.8,17.985,17.985,0,0,1-12.8,5.3,17.979,17.979,0,0,1-12.8-5.3,17.982,17.982,0,0,1-5.3-12.8v-9.329a18.12,18.12,0,0,0-18.1-18.1,18.118,18.118,0,0,0-18.1,18.1v9.329a17.977,17.977,0,0,1-5.3,12.8,17.981,17.981,0,0,1-12.8,5.3,17.981,17.981,0,0,1-12.8-5.3,17.977,17.977,0,0,1-5.3-12.8v-9.329a18.12,18.12,0,0,0-18.1-18.1,18.118,18.118,0,0,0-18.1,18.1v10.039a17.982,17.982,0,0,1-5.3,12.8A17.986,17.986,0,0,1,10021.1-2576Zm72.9-122a10.514,10.514,0,0,0-10.5,10.5,10.512,10.512,0,0,0,10.5,10.5,10.511,10.511,0,0,0,10.5-10.5A10.513,10.513,0,0,0,10094-2698Zm29.5-58a14.017,14.017,0,0,0-14,14,14.017,14.017,0,0,0,14,14,14.015,14.015,0,0,0,14-14A14.015,14.015,0,0,0,10123.5-2756Zm-59,0a14.015,14.015,0,0,0-14,14,14.015,14.015,0,0,0,14,14,14.017,14.017,0,0,0,14-14A14.017,14.017,0,0,0,10064.5-2756Z" transform="translate(-10003 2820)" fill="#fff"/>
</svg>
