<svg xmlns="http://www.w3.org/2000/svg" width="287.23" height="268.053" viewBox="0 0 287.23 268.053">
  <g id="Group_33" data-name="Group 33" transform="translate(-70.385 -114.974)">
    <g id="chat-fill" transform="translate(70.385 112.724)">
      <path id="Path_66" data-name="Path 66" d="M143.615,253.576c79.315,0,143.615-56.257,143.615-125.663S222.931,2.25,143.615,2.25,0,58.507,0,127.913c0,31.6,13.34,60.5,35.369,82.579-1.739,18.239-7.484,38.234-13.843,53.249a4.673,4.673,0,0,0,4.9,6.5C66.925,263.6,91,253.4,101.464,248.1a162.642,162.642,0,0,0,42.151,5.481Z" fill="#2c3338"/>
    </g>
    <path id="Path_67" data-name="Path 67" d="M130.442,12.367l-.735,34.9c0,1.376-.933,3.157-2.687,3.157h-.94c-1.754,0-2.687-1.956-2.687-3.369l-2.806-34.966c-.718,0-1.452,0-2.22,0-1.34,0-2.594-.007-3.782-.007l-2.806,35.449a2.794,2.794,0,0,1-2.68,2.889h-.94c-1.754,0-2.687-1.956-2.687-3.369l-.728-34.553c-9.308,1.466-9.305,8-9.305,36.611,0,9.652,3.835,18.057,10.685,22.574a20.476,20.476,0,0,0,2.975,1.631,21.072,21.072,0,0,0,3.283,1.125l-3.147,120.322c0,2.512,5.347,4.563,7.859,4.563h4.136c2.512,0,7.859-2.045,7.859-4.556L125.931,74a21.314,21.314,0,0,0,6.81-3.928c5.506-4.755,8.557-12.359,8.557-20.956C141.3,19.442,140.726,13.522,130.442,12.367Z" transform="translate(50.108 247.939) rotate(-45)" fill="#ffed74"/>
    <g id="Group_32" data-name="Group 32" transform="translate(283.171 161.599) rotate(45)">
      <path id="Path_63" data-name="Path 63" d="M341.069,82.386V101.9a10.936,10.936,0,0,1-1.57,5.619c-1.65-1.494-3.983-1.515-5.144-1.515-.839,0-1.754.052-2.721.1-1.023.055-2.1.114-3.234.114h-1.088c-1.127,0-2.212-.062-3.234-.114-.967-.055-1.882-.1-2.721-.1-1.165,0-3.494.021-5.144,1.515a10.929,10.929,0,0,1-1.57-5.619V0C337.17-.3,341.069,76.451,341.069,82.386Z" transform="translate(-314.642 0)" fill="#ffed74"/>
      <path id="Path_64" data-name="Path 64" d="M325.657,256.711c.783,0,1.633.049,2.531.1,1.081.062,2.232.122,3.421.122H332.7c1.192,0,2.343-.062,3.421-.122.9-.052,1.751-.1,2.531-.1,1.48,0,2.378.139,2.9.686a3.436,3.436,0,0,1,.617,2.447V336.96a9.678,9.678,0,0,1-9.47,9.848h-1.088a9.673,9.673,0,0,1-9.47-9.848V259.844a3.453,3.453,0,0,1,.617-2.447C323.279,256.85,324.173,256.711,325.657,256.711Z" transform="translate(-318.943 -147.239)" fill="#ffed74"/>
    </g>
  </g>
</svg>
