<svg xmlns="http://www.w3.org/2000/svg" width="27.247" height="18.172" viewBox="0 0 27.247 18.172">
    <path id="Icon_ionic-ios-arrow-round-back" data-name="Icon ionic-ios-arrow-round-back" d="M17.753,11.6a1.237,1.237,0,0,1,.009,1.741L12.018,19.1h21.89a1.23,1.23,0,0,1,0,2.461H12.018l5.754,5.764a1.246,1.246,0,0,1-.009,1.741,1.225,1.225,0,0,1-1.732-.009l-7.8-7.855h0a1.382,1.382,0,0,1-.256-.388,1.174,1.174,0,0,1-.095-.473,1.234,1.234,0,0,1,.35-.861l7.8-7.855A1.206,1.206,0,0,1,17.753,11.6Z" transform="translate(-7.882 -11.252)"/>
</svg>
  