<svg xmlns="http://www.w3.org/2000/svg" width="35.949" height="33.548" viewBox="0 0 35.949 33.548">
  <g id="Group_17" data-name="Group 17" transform="translate(6265.768 -2504.108)">
    <path id="Path_3" data-name="Path 3" d="M6.017,26.727a2.247,2.247,0,0,1,.645,1.8,24.648,24.648,0,0,1-.895,4.494,26.522,26.522,0,0,0,5.918-2.006,2.247,2.247,0,0,1,1.595-.166,18.109,18.109,0,0,0,4.694.61c8.978,0,15.728-6.307,15.728-13.481S26.953,4.5,17.974,4.5,2.247,10.806,2.247,17.978a12.344,12.344,0,0,0,3.771,8.749ZM4.91,35.5q-.8.158-1.6.29a.584.584,0,0,1-.613-.814q.3-.706.548-1.431l.007-.022a23.5,23.5,0,0,0,1.177-5.211A14.592,14.592,0,0,1,0,17.978C0,9.291,8.048,2.25,17.974,2.25S35.949,9.291,35.949,17.978,27.9,33.705,17.974,33.705a20.356,20.356,0,0,1-5.273-.688A30.718,30.718,0,0,1,4.909,35.5Z" transform="translate(-6265.768 2501.858)" fill="#333334" fill-rule="evenodd"/>
    <path id="Path_4" data-name="Path 4" d="M11.244,18A2.247,2.247,0,1,1,9,15.75,2.247,2.247,0,0,1,11.244,18Zm8.987,0a2.247,2.247,0,1,1-2.247-2.247A2.247,2.247,0,0,1,20.231,18Zm8.987,0a2.247,2.247,0,1,1-2.247-2.247A2.247,2.247,0,0,1,29.218,18Z" transform="translate(-6265.777 2502.885)" fill="#333334"/>
  </g>
</svg>
