<svg xmlns="http://www.w3.org/2000/svg" width="59" height="59" viewBox="0 0 59 59">
  <g id="Group_40" data-name="Group 40" transform="translate(-4946 -2395)">
    <circle id="Ellipse_62" data-name="Ellipse 62" cx="29.5" cy="29.5" r="29.5" transform="translate(4946 2395)" fill="#333334"/>
    <g id="x" transform="translate(4957.5 2406.5)">
      <path id="Path_9" data-name="Path 9" d="M26.671,9.329a1.125,1.125,0,0,1,0,1.593l-15.75,15.75a1.126,1.126,0,0,1-1.593-1.593l15.75-15.75a1.125,1.125,0,0,1,1.593,0Z" fill="#ffed74" fill-rule="evenodd"/>
      <path id="Path_10" data-name="Path 10" d="M9.329,9.329a1.125,1.125,0,0,0,0,1.593l15.75,15.75a1.126,1.126,0,0,0,1.593-1.593L10.922,9.329a1.125,1.125,0,0,0-1.593,0Z" fill="#ffed74" fill-rule="evenodd"/>
    </g>
  </g>
</svg>
