<svg xmlns="http://www.w3.org/2000/svg" width="35.835" height="33.597" viewBox="0 0 35.835 33.597">
  <path id="Path_1" data-name="Path 1" d="M17.918,6.155,16.313,4.5C12.543.629,5.63,1.967,3.136,6.838c-1.172,2.292-1.435,5.6.7,9.821C5.9,20.725,10.188,25.593,17.918,30.9,25.65,25.593,29.935,20.724,32,16.659c2.139-4.225,1.876-7.531.7-9.821C30.206,1.967,23.294.627,19.524,4.5Zm0,27.442C-16.424,10.9,7.345-6.809,17.524,2.56c.134.123.267.251.394.383q.19-.2.394-.381C28.49-6.814,52.261,10.9,17.918,33.6Z" transform="translate(0 0)" fill="#333334" fill-rule="evenodd"/>
</svg>
