<svg xmlns="http://www.w3.org/2000/svg" width="25.823" height="25.823" viewBox="0 0 25.823 25.823">
    <path id="Icon_awesome-directions" data-name="Icon awesome-directions" d="M25.349,11.768,14.055.474a1.618,1.618,0,0,0-2.288,0L.474,11.768a1.618,1.618,0,0,0,0,2.288L11.768,25.349a1.617,1.617,0,0,0,2.288,0L25.349,14.055a1.618,1.618,0,0,0,0-2.288Zm-5.093.633-4.247,3.92a.4.4,0,0,1-.677-.3v-2.71H10.49v3.228a.4.4,0,0,1-.4.4H8.473a.4.4,0,0,1-.4-.4V12.508a1.614,1.614,0,0,1,1.614-1.614h5.649V8.184a.4.4,0,0,1,.677-.3l4.247,3.92a.4.4,0,0,1,0,.593Z"/>
</svg>
  