<svg xmlns="http://www.w3.org/2000/svg" width="32.957" height="33.85" viewBox="0 0 32.957 33.85">
  <g id="Group_18" data-name="Group 18" transform="translate(6168.957 -2504.158)">
    <path id="Path_7" data-name="Path 7" d="M32.523,20.141V18.286l2.328-2.037a2.425,2.425,0,0,0,.46-3.092L32.45,8.308a2.444,2.444,0,0,0-2.873-1.091l-2.946.994a13.761,13.761,0,0,0-1.588-.91l-.619-3.055A2.425,2.425,0,0,0,22,2.3H16.325A2.425,2.425,0,0,0,13.9,4.247L13.281,7.3a13.918,13.918,0,0,0-1.6.91L8.8,7.168A2.425,2.425,0,0,0,8.021,7.1a2.425,2.425,0,0,0-2.1,1.212L3.063,13.158a2.425,2.425,0,0,0,.5,3.043l2.291,2.1v1.855L3.56,22.19a2.425,2.425,0,0,0-.5,3.092l2.861,4.849A2.444,2.444,0,0,0,8.8,31.221l2.946-.994a13.76,13.76,0,0,0,1.588.91l.619,3.055a2.425,2.425,0,0,0,2.425,1.952H22.1a2.425,2.425,0,0,0,2.425-1.952l.619-3.055a13.918,13.918,0,0,0,1.6-.91l2.934.994a2.444,2.444,0,0,0,2.873-1.091l2.764-4.849a2.425,2.425,0,0,0-.5-3.043Zm-2.17,8.778-4.159-1.406a10.741,10.741,0,0,1-3.286,1.9l-.86,4.353H16.326l-.861-4.3a11.348,11.348,0,0,1-3.274-1.9L8.021,28.919,5.16,24.069l3.3-2.91a10.791,10.791,0,0,1,0-3.794L5.16,14.37,8.021,9.521l4.159,1.406a10.741,10.741,0,0,1,3.286-1.9l.86-4.353h5.722l.861,4.3a11.348,11.348,0,0,1,3.274,1.9l4.169-1.358,2.861,4.849-3.3,2.91a10.791,10.791,0,0,1,0,3.794l3.3,2.995Z" transform="translate(-6171.672 2501.863)" fill="#333334"/>
    <path id="Path_8" data-name="Path 8" d="M18.524,25.8a7.2,7.2,0,1,1,5.165-2.109A7.274,7.274,0,0,1,18.524,25.8Zm0-12.124a4.741,4.741,0,0,0-4.849,4.849,4.741,4.741,0,0,0,4.849,4.849,4.741,4.741,0,0,0,4.849-4.849,4.741,4.741,0,0,0-4.849-4.849Z" transform="translate(-6171.009 2502.559)" fill="#333334"/>
  </g>
</svg>
