<svg xmlns="http://www.w3.org/2000/svg" width="33.45" height="33.548" viewBox="0 0 33.45 33.548">
  <path id="account" d="M16.725,18.743A8.084,8.084,0,0,1,10.79,16.29a8.084,8.084,0,0,1-2.453-5.935,8.079,8.079,0,0,1,2.454-5.934,8.092,8.092,0,0,1,5.935-2.453,8.077,8.077,0,0,1,5.934,2.453,8.086,8.086,0,0,1,2.453,5.935,8.086,8.086,0,0,1-2.453,5.935,8.079,8.079,0,0,1-5.935,2.453Zm0,4.218a29.783,29.783,0,0,1,6.818.883,21.461,21.461,0,0,1,6.818,2.894q3.09,2.011,3.09,4.561v4.218H0V31.3q0-2.551,3.09-4.561a21.493,21.493,0,0,1,6.818-2.894,29.706,29.706,0,0,1,6.818-.883Z" transform="translate(0 -1.969)" fill="#333334"/>
</svg>
