<svg xmlns="http://www.w3.org/2000/svg" width="22.5" height="31.5" viewBox="0 0 22.5 31.5">
  <g id="Group_19" data-name="Group 19" transform="translate(6430.506 -2375.206)">
    <path id="Path_52" data-name="Path 52" d="M18,4.5a5.625,5.625,0,1,1-5.625,5.625A5.625,5.625,0,0,1,18,4.5m0-2.25a7.875,7.875,0,1,0,7.875,7.875A7.875,7.875,0,0,0,18,2.25Z" transform="translate(-6437.256 2372.956)" fill="#333334"/>
    <path id="Path_53" data-name="Path 53" d="M29.25,33.75H27V28.125A5.625,5.625,0,0,0,21.375,22.5h-6.75A5.625,5.625,0,0,0,9,28.125V33.75H6.75V28.125a7.875,7.875,0,0,1,7.875-7.875h6.75a7.875,7.875,0,0,1,7.875,7.875Z" transform="translate(-6437.256 2372.956)" fill="#333334"/>
  </g>
</svg>
